<svg width="512" height="512" viewBox="0 0 512 512" fill="none" xmlns="http://www.w3.org/2000/svg">
  <rect width="512" height="512" rx="112" fill="#020617"/>
  <rect x="96" y="96" width="320" height="320" rx="84" fill="white"/>
  <path d="M155 343V169H196V307H270V343H155Z" fill="#020617"/>
  <path d="M281 296C285 307 296 314 313 314C330 314 340 307 340 295C340 285 333 279 315 275L294 270C258 262 240 245 240 219C240 187 267 166 309 166C347 166 373 184 381 215L343 225C339 211 328 202 309 202C292 202 281 209 281 220C281 230 289 236 305 240L326 245C364 254 382 270 382 296C382 329 355 350 312 350C269 350 242 332 235 301L281 296Z" fill="#020617"/>
</svg>