<svg width="512" height="512" viewBox="0 0 512 512" fill="none" xmlns="http://www.w3.org/2000/svg">
  <rect width="512" height="512" fill="#020617"/>
  <rect x="121" y="121" width="270" height="270" rx="72" fill="white"/>
  <path d="M168 326V186H202V296H262V326H168Z" fill="#020617"/>
  <path d="M272 288C276 298 286 304 300 304C314 304 322 298 322 289C322 281 316 276 301 272L284 268C254 261 239 247 239 225C239 198 262 181 297 181C329 181 350 196 357 222L325 231C322 219 313 212 297 212C283 212 274 218 274 227C274 236 280 240 294 244L312 248C344 256 359 269 359 291C359 318 336 335 300 335C264 335 242 320 236 294L272 288Z" fill="#020617"/>
</svg>